<?xml version="1.0" standalone="no"?>
<!DOCTYPE svg PUBLIC "-//W3C//DTD SVG 20010904//EN"
 "http://www.w3.org/TR/2001/REC-SVG-20010904/DTD/svg10.dtd">
<svg version="1.0" xmlns="http://www.w3.org/2000/svg"
 width="1024.000000pt" height="1024.000000pt" viewBox="0 0 1024.000000 1024.000000"
 preserveAspectRatio="xMidYMid meet">

<g transform="translate(0.000000,1024.000000) scale(0.100000,-0.100000)"
fill="#000000" stroke="none">
<path d="M1731 6189 c-506 -59 -894 -454 -951 -968 -30 -277 74 -599 263 -811
417 -469 1133 -489 1572 -45 132 133 217 278 270 461 164 567 -167 1163 -739
1329 -79 22 -253 47 -315 44 -14 -1 -59 -5 -100 -10z m19 -520 c63 -10 190
-62 190 -78 0 -4 -27 -34 -60 -66 -52 -49 -65 -56 -88 -51 -89 21 -170 18
-247 -9 -17 -6 -18 -5 -5 5 13 10 11 11 -7 7 -12 -3 -24 0 -26 7 -7 19 -89
-48 -129 -105 -20 -29 -42 -71 -49 -92 -7 -22 -15 -35 -17 -29 -2 7 -11 8 -25
3 -12 -4 -27 -6 -34 -4 -6 2 -17 -5 -22 -16 -8 -13 -17 -18 -28 -14 -10 4 -14
2 -9 -5 3 -6 2 -13 -4 -17 -27 -17 5 136 45 215 63 125 204 224 355 250 65 11
87 11 160 -1z m610 -159 c0 -6 10 -6 25 0 20 8 25 6 25 -7 0 -27 -96 -135
-412 -458 l-107 -110 -31 30 c-18 17 -68 70 -113 118 l-80 88 54 55 53 54 58
-57 57 -56 161 166 c89 92 166 164 171 161 5 -3 15 1 23 8 15 16 116 22 116 8z
m54 -245 c7 -101 6 -273 -3 -390 -5 -49 -9 -82 -9 -72 -2 15 -6 16 -22 7 -11
-6 -25 -8 -30 -5 -5 3 -13 -2 -18 -11 -19 -34 -30 304 -16 477 l7 74 42 0 42
0 7 -80z m-1227 -177 c-3 -8 -6 -5 -6 6 -1 11 2 17 5 13 3 -3 4 -12 1 -19z
m66 -133 c9 2 17 -2 17 -7 0 -14 58 -85 110 -135 22 -21 68 -54 102 -73 35
-19 64 -43 66 -52 4 -26 -17 -22 -96 17 -89 45 -183 142 -224 232 -31 69 -37
96 -10 47 11 -20 24 -30 35 -29z m334 -291 c-3 -3 -12 -4 -19 -1 -8 3 -5 6 6
6 11 1 17 -2 13 -5z m96 -11 c-13 -2 -35 -2 -50 0 -16 2 -5 4 22 4 28 0 40 -2
28 -4z"/>
<path d="M3162 5497 l-92 -92 0 -230 0 -230 93 -93 92 -92 300 0 300 0 95 95
94 95 -359 2 -360 3 0 220 0 220 280 3 281 2 94 95 95 95 -410 0 -410 0 -93
-93z"/>
<path d="M7760 5099 c0 -270 3 -489 8 -487 4 2 60 32 124 68 l117 65 3 165 3
165 226 3 226 2 84 88 84 87 -310 5 -310 5 0 65 0 65 280 3 281 2 94 95 95 95
-503 0 -502 0 0 -491z"/>
<path d="M4347 5272 l-67 -68 0 -165 0 -165 63 -62 63 -62 258 0 258 0 69 61
69 61 0 167 0 167 -68 67 -68 67 -255 0 -255 0 -67 -68z m503 -227 l0 -155
-185 0 -185 0 0 148 c0 82 3 152 7 155 3 4 87 7 185 7 l178 0 0 -155z"/>
<path d="M5296 5251 c-36 -48 -66 -92 -66 -96 0 -4 28 -45 62 -91 l62 -84 222
0 223 0 20 -27 c20 -24 20 -27 5 -45 -16 -16 -36 -18 -238 -18 l-221 0 -67
-66 c-38 -36 -68 -68 -68 -70 0 -2 159 -4 354 -4 l354 0 61 82 c34 45 61 88
61 96 0 8 -27 52 -61 98 l-60 84 -223 0 c-209 0 -224 1 -241 20 -17 18 -17 21
-1 45 l16 25 223 0 222 0 63 56 c34 31 62 62 62 70 0 12 -54 14 -349 14 l-349
0 -66 -89z"/>
<path d="M6240 4995 c0 -401 -11 -373 116 -300 l79 45 5 167 5 168 90 -127 90
-127 77 -1 76 0 94 127 93 128 3 -163 2 -162 100 0 100 0 0 295 0 295 -114 0
-114 0 -112 -157 c-62 -87 -116 -161 -120 -166 -3 -4 -60 67 -125 158 l-120
165 -112 0 -113 0 0 -345z"/>
<path d="M7380 4995 c0 -401 -11 -373 119 -299 l81 46 0 299 0 299 -100 0
-100 0 0 -345z"/>
<path d="M8960 5332 c0 -4 70 -77 155 -162 l155 -155 0 -182 c0 -161 2 -183
16 -183 9 0 54 21 100 46 l84 46 0 136 0 137 155 155 c85 85 155 158 155 162
0 5 -53 8 -117 8 l-118 0 -87 -87 -88 -88 -88 88 -87 87 -118 0 c-64 0 -117
-3 -117 -8z"/>
</g>
</svg>
